<?xml version="1.0" standalone="no"?>
<!DOCTYPE svg PUBLIC "-//W3C//DTD SVG 20010904//EN"
 "http://www.w3.org/TR/2001/REC-SVG-20010904/DTD/svg10.dtd">
<svg version="1.0" xmlns="http://www.w3.org/2000/svg"
 width="640.000000pt" height="640.000000pt" viewBox="0 0 640.000000 640.000000"
 preserveAspectRatio="xMidYMid meet">
<metadata>
Created by potrace 1.14, written by Peter Selinger 2001-2017
</metadata>
<g transform="translate(0.000000,640.000000) scale(0.100000,-0.100000)"
fill="#000000" stroke="none">
<path d="M3043 6298 c-6 -7 -12 -20 -16 -29 -6 -18 -76 -28 -259 -35 -118 -4
-133 -8 -124 -31 5 -12 1 -14 -20 -9 -21 6 -25 4 -21 -7 4 -11 -11 -17 -66
-26 -40 -7 -84 -13 -99 -13 -16 -1 -28 -5 -28 -9 0 -5 -10 -9 -21 -9 -56 0
-99 -24 -154 -86 -31 -35 -63 -64 -70 -64 -20 0 -65 -51 -65 -73 0 -10 -4 -15
-10 -12 -5 3 -10 -3 -10 -14 0 -15 4 -19 18 -14 12 5 9 -2 -10 -26 -16 -18
-28 -38 -28 -45 0 -23 -66 -101 -122 -144 -30 -23 -61 -53 -68 -67 -12 -22
-18 -24 -48 -19 -25 5 -33 3 -28 -5 4 -6 2 -11 -4 -11 -7 0 -9 -8 -5 -22 6
-17 4 -20 -10 -14 -13 4 -16 2 -11 -9 3 -8 2 -14 -2 -14 -30 5 -62 -22 -62
-51 0 -24 118 -84 143 -74 25 9 21 -2 -23 -60 -22 -29 -40 -58 -40 -64 0 -7
-4 -12 -10 -12 -5 0 -10 -5 -10 -10 0 -6 -11 -27 -23 -48 -13 -20 -31 -68 -41
-107 -9 -38 -21 -83 -26 -100 -9 -30 -32 -309 -33 -395 -1 -50 9 -103 24 -131
12 -24 55 -25 68 -1 6 9 11 12 11 5 0 -8 9 -9 32 -2 21 6 34 5 39 -2 8 -13 19
25 19 69 0 32 14 43 23 20 3 -8 6 -5 6 5 1 27 26 -1 28 -31 2 -28 20 -52 39
-52 25 0 15 -19 -12 -22 -21 -2 -28 -9 -30 -30 -1 -16 2 -28 7 -28 14 0 11
-28 -3 -33 -10 -3 -10 -9 0 -27 8 -12 9 -20 4 -17 -11 8 -4 -99 9 -134 6 -15
27 -35 47 -45 43 -22 65 -42 75 -67 4 -10 27 -30 51 -45 25 -15 49 -36 54 -47
5 -11 22 -26 38 -34 16 -7 36 -17 44 -22 8 -5 29 -16 47 -25 28 -14 30 -18 20
-35 -18 -30 3 -41 78 -40 60 0 77 -4 125 -30 8 -5 30 -15 48 -23 20 -9 32 -22
32 -34 0 -20 64 -92 82 -92 6 0 37 -27 69 -59 l59 -60 -2 -72 c-1 -58 2 -75
16 -85 15 -10 15 -15 4 -33 -11 -18 -11 -23 1 -30 10 -7 11 -13 1 -30 -7 -13
-9 -39 -4 -66 11 -78 10 -158 -4 -171 -8 -8 -9 -15 -2 -19 21 -13 -3 -25 -51
-25 -35 0 -49 -4 -49 -14 0 -16 -61 -30 -89 -21 -21 6 -101 -22 -101 -36 0 -5
-6 -9 -12 -9 -20 0 -78 -71 -85 -103 -6 -28 -17 -40 -41 -43 -8 -2 -30 -14
-50 -27 -21 -14 -57 -31 -82 -38 -25 -7 -58 -20 -75 -29 -16 -9 -61 -20 -98
-24 -38 -4 -76 -11 -85 -16 -54 -29 -94 -42 -117 -36 -14 4 -46 0 -71 -9 -29
-10 -84 -15 -157 -16 -155 0 -262 -13 -281 -32 -22 -21 -71 -119 -68 -134 2
-7 -7 -18 -18 -25 -32 -20 -57 -66 -70 -132 -7 -32 -23 -78 -35 -101 -23 -41
-30 -101 -13 -111 4 -3 8 2 8 10 0 9 5 16 11 16 6 0 27 8 46 17 35 16 36 16
54 -5 11 -15 19 -48 24 -100 3 -42 13 -116 21 -165 8 -48 14 -104 14 -125 0
-20 4 -44 10 -52 5 -9 5 -19 -1 -27 -6 -7 -8 -17 -4 -23 4 -6 1 -17 -5 -25
-17 -20 -5 -66 15 -59 8 4 15 1 15 -6 0 -6 7 -19 16 -28 14 -14 14 -17 1 -27
-11 -8 -14 -26 -12 -70 1 -33 -1 -65 -6 -70 -4 -6 -5 -30 -2 -53 l6 -43 86 3
c50 2 85 7 84 13 -1 6 9 16 22 22 20 11 30 10 65 -10 l42 -22 -37 -6 c-63 -10
-95 -78 -80 -168 5 -31 3 -44 -12 -58 -13 -14 -19 -36 -20 -87 -3 -76 -3 -76
-30 -80 -22 -3 -29 -54 -15 -106 9 -30 36 -330 47 -510 2 -30 6 -81 10 -113
l8 -57 1510 0 1510 0 -6 47 c-4 27 -9 89 -13 138 -4 50 -10 97 -15 106 -4 9
-4 20 1 25 10 10 -10 148 -30 214 -5 19 -15 64 -20 100 -6 36 -20 84 -31 108
-11 24 -22 58 -25 75 -16 86 -80 165 -104 127 -5 -8 -7 -17 -4 -21 15 -25 -82
-42 -192 -32 -82 7 -92 15 -101 80 -6 40 1 41 30 7 26 -30 40 -31 199 -16 84
8 114 15 139 33 l31 22 -7 101 c-3 56 -13 114 -21 130 -8 16 -12 38 -8 48 7
24 -20 66 -52 78 -20 8 -24 16 -24 47 0 33 -4 41 -32 55 -18 9 -40 18 -49 21
-11 4 -18 22 -23 56 -4 31 -13 54 -23 59 -11 7 -14 15 -8 28 4 11 7 25 6 31
-1 10 4 10 22 2 21 -10 24 -16 20 -53 -4 -36 -2 -43 18 -53 52 -25 126 -43
200 -49 l79 -7 0 -51 c0 -71 9 -82 57 -70 36 9 38 11 48 63 10 48 15 57 42 68
28 11 32 18 38 65 12 95 44 220 75 293 36 84 61 203 75 365 4 41 10 80 14 85
15 20 41 114 41 149 0 30 -4 36 -21 36 -19 0 -21 4 -15 31 3 17 6 35 6 40 0 5
5 9 10 9 6 0 10 -7 10 -15 0 -19 45 -65 91 -93 19 -12 44 -30 54 -42 14 -15
30 -20 69 -19 l51 1 -47 13 c-56 15 -78 35 -78 69 0 20 -12 33 -55 61 -31 19
-60 35 -65 35 -6 0 -10 5 -10 10 0 6 -7 10 -15 10 -16 0 -21 16 -6 22 5 2 5
13 0 25 -11 30 -78 63 -142 70 -64 7 -99 24 -126 61 -22 31 -64 47 -154 58
-50 5 -61 11 -84 40 -16 22 -34 34 -49 34 -17 0 -24 6 -24 19 0 11 -5 21 -10
23 -6 2 -1 14 11 26 20 23 20 24 3 37 -11 8 -25 15 -32 15 -7 0 -11 4 -8 9 3
5 16 7 28 3 14 -3 19 -2 14 6 -4 7 -12 12 -19 12 -6 0 -22 11 -36 24 -15 13
-51 31 -81 40 -64 20 -168 59 -227 87 -43 19 -68 51 -60 74 3 7 1 30 -4 51 -5
22 -11 99 -14 171 l-6 133 34 33 c34 35 69 100 108 202 25 66 74 145 90 145 6
0 31 23 57 50 25 27 53 50 61 50 12 0 12 3 3 12 -15 15 -14 66 1 138 15 66 23
81 45 78 14 -3 17 5 15 45 -2 26 -4 68 -5 95 l-3 47 55 0 c48 0 55 3 56 20 3
52 4 55 30 55 14 0 34 -5 45 -10 20 -11 25 -1 20 44 -2 28 18 46 51 46 62 0
68 10 68 122 0 55 -5 119 -11 142 -6 22 -17 64 -24 91 -8 28 -17 75 -21 105
-3 30 -10 65 -15 77 -4 11 -15 56 -24 100 -9 43 -22 89 -29 103 -8 14 -25 47
-40 75 -27 52 -42 63 -89 64 -16 1 -36 11 -49 26 -12 14 -28 25 -36 25 -7 0
-32 18 -55 40 -68 65 -73 70 -83 70 -11 0 -66 49 -80 70 -5 8 -18 20 -29 26
-11 6 -20 15 -20 20 -1 5 -11 25 -23 44 -19 30 -22 32 -22 13 0 -13 -4 -23 -8
-23 -14 0 -52 58 -52 80 0 11 -5 20 -11 20 -6 0 -33 16 -59 35 -26 19 -51 35
-55 35 -10 0 -45 40 -45 51 0 4 -12 6 -27 3 -15 -3 -30 0 -34 8 -7 10 -9 10
-9 1 0 -8 -14 -13 -34 -13 -36 0 -44 10 -50 67 -3 22 -11 29 -51 40 -29 9 -57
11 -74 6 -14 -4 -49 -7 -77 -5 -42 2 -53 7 -64 27 -12 22 -19 24 -61 20 -33
-2 -58 2 -83 16 -42 22 -69 24 -83 7z m-133 -222 c19 -2 52 -4 73 -5 52 -2 46
-18 -10 -27 -27 -4 -57 -13 -68 -21 -20 -15 -19 -15 3 -8 12 3 22 2 22 -3 0
-11 -24 -21 -220 -82 -74 -24 -140 -45 -146 -47 -6 -2 -19 8 -28 22 -17 26
-17 27 3 32 12 3 21 9 21 13 0 4 16 18 36 33 20 14 42 36 48 49 6 12 18 23 26
24 8 0 22 4 30 7 34 15 98 24 135 20 22 -3 56 -6 75 -7z m616 -65 c-3 -4 6
-19 19 -31 19 -18 22 -26 13 -32 -17 -10 0 -39 30 -53 28 -12 29 -35 1 -35
-11 0 -29 -4 -39 -10 -10 -5 -51 -11 -91 -13 -41 -2 -80 -6 -88 -8 -7 -2 -15
1 -18 7 -2 7 14 14 42 19 33 4 45 10 41 20 -2 7 2 16 10 19 12 5 13 10 4 27
-9 16 -18 20 -39 16 -61 -13 -62 30 -1 60 43 22 127 32 116 14z m-206 -101 c0
-12 -21 -22 -53 -25 -12 -1 -22 -3 -22 -4 0 -3 -137 -51 -220 -77 -44 -14
-115 -29 -159 -34 -43 -5 -83 -13 -90 -18 -6 -5 -24 -12 -41 -16 -16 -4 -38
-9 -48 -12 -16 -5 -18 -2 -12 15 5 16 1 23 -16 29 -24 9 -139 -5 -153 -19 -6
-5 -26 -9 -45 -9 l-36 1 45 39 c44 39 86 57 61 26 -10 -12 -5 -14 31 -10 57 4
139 15 158 20 8 2 94 24 190 49 191 49 194 50 185 35 -3 -5 1 -10 9 -10 9 0
16 5 16 10 0 7 6 7 18 1 13 -7 34 -6 68 4 60 16 114 19 114 5z m-380 -154 c0
-3 -4 -8 -10 -11 -5 -3 -10 -1 -10 4 0 6 5 11 10 11 6 0 10 -2 10 -4z m434
-35 c3 -5 20 -11 38 -14 97 -17 148 -32 153 -45 5 -13 -17 -14 -167 -8 -101 4
-177 11 -183 18 -7 7 -6 12 3 15 6 3 12 13 12 24 0 17 8 19 69 19 39 0 72 -4
75 -9z m-856 -62 c-3 -9 -47 -35 -115 -68 -7 -3 -30 -19 -52 -35 -56 -40 -70
-28 -24 20 27 27 62 49 109 67 79 30 87 31 82 16z m607 -19 c0 -11 -14 -16
-55 -18 -57 -3 -60 5 -7 25 40 15 62 12 62 -7z m-1065 -50 c0 -11 -53 -40 -72
-40 -18 1 39 50 58 50 8 0 14 -4 14 -10z m1888 -57 c-5 -25 -28 -28 -28 -4 0
12 6 21 16 21 9 0 14 -7 12 -17z m-121 -75 c-2 -13 -4 -3 -4 22 0 25 2 35 4
23 2 -13 2 -33 0 -45z m-443 -29 c28 -18 77 -47 108 -64 31 -17 66 -43 78 -58
12 -15 27 -27 33 -26 35 4 44 -2 45 -32 0 -17 6 -37 12 -44 7 -8 9 -19 6 -24
-4 -5 1 -28 11 -50 19 -43 60 -71 106 -71 18 0 28 -8 38 -32 7 -18 14 -40 14
-48 0 -8 15 -22 33 -30 19 -9 38 -23 43 -31 5 -8 9 -55 9 -106 0 -50 4 -94 9
-97 29 -18 31 -292 2 -434 -11 -56 -18 -108 -15 -115 6 -17 -41 -260 -67 -347
-17 -59 -25 -70 -87 -122 -37 -32 -98 -85 -137 -119 -83 -71 -213 -172 -246
-189 -13 -7 -45 -30 -72 -52 -27 -21 -58 -38 -68 -38 -30 0 -90 35 -129 75
-19 20 -66 57 -105 83 -58 39 -208 153 -225 172 -3 3 -31 27 -63 54 -62 52
-84 88 -157 261 -23 55 -48 114 -55 130 -15 35 -22 75 -29 162 -4 64 7 77 19
23 4 -17 11 -30 16 -30 5 0 9 -8 9 -18 0 -19 17 -37 57 -59 19 -11 24 -10 37
9 8 12 13 25 10 30 -3 5 0 16 7 24 10 13 10 17 -1 24 -8 5 -19 6 -25 2 -5 -3
-4 1 3 10 14 17 6 42 -23 78 -10 12 -35 94 -35 114 0 3 7 6 15 6 10 0 15 -10
15 -33 0 -20 8 -39 20 -50 22 -18 85 -23 95 -7 11 18 26 10 36 -19 18 -52 106
-44 135 11 9 18 22 28 32 26 26 -5 25 -31 -3 -71 -39 -59 -41 -79 -7 -104 l29
-22 36 37 c61 65 91 151 85 250 l-4 62 28 0 c23 0 28 -4 28 -25 0 -25 19 -36
21 -12 0 10 2 10 6 0 2 -7 11 -13 19 -13 8 0 14 -4 14 -9 0 -12 52 -11 68 2
17 13 26 2 40 -48 13 -44 75 -119 107 -129 11 -3 33 -18 49 -33 29 -26 30 -26
180 -27 144 -1 153 0 197 25 52 28 59 35 109 99 35 44 35 46 35 142 l0 97 -50
51 c-76 77 -107 85 -320 85 -225 -1 -265 -7 -287 -46 -15 -26 -23 -29 -65 -29
-26 0 -80 -7 -118 -16 -39 -9 -85 -16 -102 -15 -97 6 -243 5 -280 -2 -38 -6
-43 -5 -43 12 0 30 67 102 124 135 28 16 52 30 54 31 2 2 -1 13 -8 24 -14 27
-35 26 -86 -2 -47 -27 -84 -39 -84 -27 0 63 54 198 129 321 60 99 236 273 303
300 136 55 204 57 282 8z m456 -20 c0 -5 -4 -9 -10 -9 -5 0 -10 7 -10 16 0 8
5 12 10 9 6 -3 10 -10 10 -16z m-1667 -19 c-10 -40 -120 -106 -158 -96 -15 4
-25 1 -29 -9 -3 -8 -11 -15 -18 -15 -10 0 -10 2 0 9 8 4 14 12 15 16 1 5 31
24 67 43 36 19 76 43 89 53 31 24 40 24 34 -1z m202 -40 c3 -5 1 -10 -4 -10
-6 0 -11 5 -11 10 0 6 2 10 4 10 3 0 8 -4 11 -10z m-1 -40 c-35 -34 -74 -48
-74 -27 0 8 20 23 45 34 25 10 45 25 46 33 0 12 2 12 6 1 3 -7 -8 -26 -23 -41z
m-404 -84 c0 -3 -4 -8 -10 -11 -5 -3 -10 -1 -10 4 0 6 5 11 10 11 6 0 10 -2
10 -4z m1770 -17 c0 -6 -9 -9 -20 -6 -10 3 -21 0 -23 -6 -2 -6 -9 -7 -15 -3
-7 4 -10 12 -7 17 9 13 65 11 65 -2z m-1712 -38 c-2 -16 -10 -27 -22 -30 -11
-2 -32 -15 -46 -30 -15 -14 -52 -39 -84 -54 -31 -16 -56 -33 -56 -38 0 -6 -5
-7 -10 -4 -15 9 4 105 20 105 4 0 10 9 13 19 6 26 66 63 92 57 11 -2 31 0 45
4 37 10 52 1 48 -29z m172 -111 c0 -5 -4 -10 -10 -10 -5 0 -10 5 -10 10 0 6 5
10 10 10 6 0 10 -4 10 -10z m2132 -53 c-9 -19 -20 10 -14 38 l6 30 6 -30 c4
-16 4 -34 2 -38z m-2242 14 c0 -20 -13 -41 -21 -35 -15 9 -10 44 6 44 8 0 15
-4 15 -9z m455 -50 c-5 -22 -12 -31 -26 -31 -10 0 -19 2 -19 5 0 9 25 50 35
57 15 11 18 2 10 -31z m71 -47 c-4 -9 -9 -15 -11 -12 -3 3 -3 13 1 22 4 9 9
15 11 12 3 -3 3 -13 -1 -22z m-19 -42 c-9 -2 -15 -8 -12 -13 8 -12 -20 -51
-30 -41 -4 4 -6 0 -3 -8 3 -8 -1 -21 -9 -28 -11 -11 -10 -16 3 -29 8 -9 13
-22 9 -31 -3 -8 -1 -20 5 -27 12 -14 -2 -28 -36 -39 -20 -6 -22 -3 -22 34 0
22 -3 44 -6 49 -18 28 74 154 104 142 12 -4 12 -6 -3 -9z m-487 -69 c0 -24 -3
-43 -6 -43 -12 0 -74 65 -74 77 0 17 63 33 72 19 4 -6 8 -30 8 -53z m-325 -95
c-4 -18 -12 -37 -17 -43 -7 -7 -9 -2 -4 15 4 14 9 32 11 40 2 8 4 16 4 18 1 1
4 2 7 2 3 0 3 -15 -1 -32z m1670 -87 c17 -7 14 -10 -20 -21 -22 -7 -45 -17
-52 -22 -13 -10 -33 -3 -33 12 0 11 49 38 70 38 8 0 24 -3 35 -7z m152 3 c-3
-3 -12 -4 -19 -1 -8 3 -5 6 6 6 11 1 17 -2 13 -5z m119 -19 c73 -19 124 -68
124 -119 0 -98 -60 -169 -154 -181 -43 -6 -172 11 -188 24 -7 6 -44 33 -82 59
-84 57 -104 83 -81 105 8 9 15 28 15 43 0 36 13 21 29 -33 11 -41 12 -42 67
-49 46 -5 57 -10 65 -31 16 -43 112 -64 154 -33 6 4 29 11 53 15 40 6 42 8 42
42 0 48 -60 129 -114 154 -37 17 -39 19 -14 19 15 0 53 -7 84 -15z m-1566 -67
c6 -13 15 -31 22 -40 16 -22 -1 -59 -36 -77 -42 -23 -50 -4 -30 65 24 84 28
89 44 52z m148 -267 c12 -27 22 -58 22 -68 0 -11 3 -23 8 -27 7 -8 11 -50 12
-133 0 -24 7 -61 15 -83 8 -22 10 -42 5 -45 -12 -8 -120 42 -120 55 0 6 -6 8
-12 4 -10 -5 -10 -4 -1 6 9 10 7 17 -10 34 -25 25 -88 65 -129 84 -16 6 -29
18 -29 27 -1 8 -2 19 -3 23 0 5 -18 23 -38 41 -33 29 -38 39 -38 77 0 38 3 44
20 44 12 0 33 -12 47 -26 21 -21 32 -25 61 -21 23 4 48 0 78 -15 26 -12 51
-17 61 -13 15 6 16 8 3 14 -18 7 -23 26 -15 52 11 35 39 21 63 -30z m1439
-833 c16 -20 15 -108 -1 -189 -17 -82 -10 -147 18 -178 9 -10 14 -20 11 -23
-3 -3 -6 -26 -7 -52 -1 -45 -3 -48 -62 -92 -33 -26 -81 -56 -106 -67 -25 -11
-61 -31 -80 -43 -20 -12 -50 -25 -68 -29 -34 -7 -62 -45 -59 -80 4 -40 -42
-48 -278 -50 -185 -1 -227 -4 -265 -19 -47 -19 -164 -24 -241 -11 -33 6 -40
10 -36 26 3 10 0 23 -7 28 -14 12 -9 81 6 81 18 0 193 92 233 123 90 70 91 73
99 191 7 103 6 109 -14 123 -17 12 -20 21 -15 44 4 17 3 35 -2 42 -21 29 -9
52 33 61 34 7 49 4 95 -17 32 -15 64 -24 79 -21 26 6 53 -10 134 -79 31 -27
49 -36 59 -30 28 16 230 184 235 196 2 4 10 7 18 7 8 0 14 5 14 10 0 6 6 10
14 10 8 0 21 6 28 13 27 28 149 45 165 25z m303 -507 c0 -11 5 -23 12 -27 8
-5 9 -2 5 9 -3 10 -2 17 3 17 15 0 23 -41 10 -54 -10 -8 -11 -8 -6 4 4 8 0 6
-8 -4 -17 -21 -21 -36 -8 -36 12 0 9 -40 -3 -40 -5 0 -2 -5 8 -11 10 -6 37 -9
60 -7 38 3 42 1 45 -22 1 -14 -4 -47 -12 -75 -55 -190 -56 -196 -45 -244 19
-83 18 -239 -2 -376 -27 -192 -26 -189 -85 -195 l-49 -5 3 -50 c2 -27 8 -52
13 -53 29 -11 50 -97 29 -118 -7 -7 -8 -28 -4 -52 6 -36 10 -42 30 -42 30 0
55 -43 36 -62 -7 -7 -12 -20 -12 -29 0 -9 -14 -22 -30 -29 -17 -7 -47 -26 -67
-41 -43 -35 -89 -39 -98 -9 -5 17 -15 20 -70 20 -48 0 -99 -11 -207 -46 -164
-52 -191 -59 -215 -50 -14 6 -13 9 10 21 15 7 37 15 49 18 13 2 -8 2 -47 -1
-38 -2 -104 -11 -145 -19 -111 -21 -1264 -38 -1237 -18 24 17 16 87 -13 112
-21 19 -34 22 -77 19 -29 -2 -50 0 -47 5 3 5 12 9 20 9 10 0 13 7 8 25 -5 20
-2 25 20 31 14 3 26 11 26 16 0 6 -9 8 -20 5 -11 -3 -20 -1 -20 4 0 5 9 9 21
9 14 0 19 5 16 14 -3 7 0 19 6 25 14 14 7 20 -29 23 -38 3 -42 10 -34 64 8 55
-13 425 -30 509 -7 39 -8 69 -2 85 7 18 4 44 -9 90 -9 35 -16 68 -13 71 2 4 0
10 -6 14 -5 3 -10 17 -10 31 0 23 3 24 66 24 39 0 112 12 184 30 138 35 159
37 162 13 0 -10 2 -23 2 -29 4 -40 67 -89 153 -120 70 -25 716 -37 792 -14 26
8 25 8 -6 9 -31 1 -32 2 -22 30 6 16 18 35 27 43 22 18 192 80 302 109 86 22
148 48 120 49 -18 0 68 63 128 92 23 12 42 25 42 28 0 4 18 13 41 20 22 8 52
28 68 45 15 17 35 34 44 38 9 3 17 15 17 25 0 19 24 45 70 75 33 21 40 21 40
-2z m177 -92 c-6 -10 -20 -19 -29 -19 -10 0 -18 -4 -18 -8 0 -4 -9 -8 -20 -9
-16 -1 -18 1 -8 10 7 7 26 18 41 25 23 10 27 17 22 35 -6 21 -5 21 9 3 12 -14
12 -22 3 -37z m-1808 -284 c21 -22 46 -37 70 -40 20 -4 58 -11 85 -17 47 -10
216 -6 345 9 41 5 52 3 47 -6 -17 -27 -99 -45 -246 -56 -92 -7 -156 -23 -100
-25 14 -1 19 -4 13 -7 -23 -9 -13 -22 20 -26 17 -2 -17 -5 -76 -5 -99 -2 -108
0 -103 16 8 25 -4 39 -74 85 -70 46 -81 62 -50 70 11 3 20 12 20 21 0 24 11
19 49 -19z m-549 -25 c0 -5 -2 -10 -4 -10 -3 0 -8 5 -11 10 -3 6 -1 10 4 10 6
0 11 -4 11 -10z m30 6 c0 -3 -4 -8 -10 -11 -5 -3 -10 -1 -10 4 0 6 5 11 10 11
6 0 10 -2 10 -4z m2562 -911 c27 -4 45 -11 42 -17 -9 -14 -144 7 -144 23 0 8
13 7 102 -6z m-2535 -61 c-3 -3 -12 -4 -19 -1 -8 3 -5 6 6 6 11 1 17 -2 13 -5z
m-247 -183 c0 -11 -36 -21 -70 -20 -20 0 -17 3 15 14 51 16 55 17 55 6z m2395
-11 c3 -5 1 -10 -4 -10 -6 0 -11 5 -11 10 0 6 2 10 4 10 3 0 8 -4 11 -10z m72
-26 c5 -12 7 -13 14 -2 5 8 7 1 5 -17 -2 -22 -9 -31 -25 -33 -17 -3 -21 2 -21
22 0 14 -4 26 -10 26 -5 0 -10 5 -10 10 0 16 40 11 47 -6z m-2687 -29 c0 -8
-4 -15 -9 -15 -13 0 -22 16 -14 24 11 11 23 6 23 -9z m1897 -1 c-3 -3 -12 -4
-19 -1 -8 3 -5 6 6 6 11 1 17 -2 13 -5z m-1531 -49 c-8 -9 -22 -12 -32 -8 -16
6 -16 7 2 14 34 13 47 11 30 -6z m-56 -14 c0 -13 -28 -22 -35 -11 -3 4 1 11 7
13 20 8 28 8 28 -2z m2488 -4 c12 -14 31 -83 39 -137 4 -33 2 -36 -29 -48 -19
-6 -62 -12 -96 -12 -52 0 -63 3 -77 23 -21 30 -37 94 -30 118 15 47 164 91
193 56z m-2433 -44 c0 -18 -5 -33 -11 -33 -20 0 -23 12 -8 35 14 22 14 24 -8
28 -21 5 -21 5 2 4 21 -2 25 -7 25 -34z m12 -95 c-2 -18 8 -28 48 -47 62 -31
60 -30 52 -38 -4 -3 -30 1 -58 10 -28 10 -72 17 -97 17 -45 0 -45 0 -26 19 10
10 27 28 36 40 24 28 48 28 45 -1z m-47 -178 c13 -8 13 -13 0 -37 -9 -15 -24
-29 -33 -31 -21 -4 -101 64 -84 72 22 8 102 6 117 -4z m135 -90 c3 -5 1 -10
-4 -10 -6 0 -11 5 -11 10 0 6 2 10 4 10 3 0 8 -4 11 -10z m5 -30 c-19 -13 -30
-13 -30 0 0 6 10 10 23 10 18 0 19 -2 7 -10z"/>
<path d="M3445 4891 c-17 -7 -16 -9 10 -15 21 -5 25 -10 16 -16 -8 -4 -11 -12
-7 -18 3 -6 -2 -13 -11 -15 -10 -3 12 -5 49 -6 37 0 70 -5 73 -11 8 -12 35
-13 55 0 12 7 12 12 -4 28 -13 15 -14 22 -5 27 38 24 -122 47 -176 26z"/>
<path d="M3403 3821 c-23 -9 -54 -26 -68 -39 -14 -12 -49 -34 -78 -47 -43 -21
-60 -24 -97 -17 -35 6 -48 13 -58 35 -9 19 -21 27 -38 27 -14 0 -33 4 -43 10
-12 6 -29 5 -50 -3 -31 -11 -31 -12 -25 -62 7 -56 27 -85 58 -85 12 0 41 -7
66 -16 33 -11 63 -14 117 -8 65 6 73 5 73 -11 0 -15 6 -17 41 -11 38 6 77 28
126 70 12 10 33 24 45 30 20 10 23 19 23 65 0 47 -3 55 -25 65 -20 10 -33 10
-67 -3z"/>
<path d="M2250 4300 c0 -5 5 -10 11 -10 5 0 7 5 4 10 -3 6 -8 10 -11 10 -2 0
-4 -4 -4 -10z"/>
<path d="M3498 1363 c7 -3 16 -2 19 1 4 3 -2 6 -13 5 -11 0 -14 -3 -6 -6z"/>
<path d="M3435 1330 c-3 -6 1 -7 9 -4 18 7 21 14 7 14 -6 0 -13 -4 -16 -10z"/>
<path d="M4453 4560 c-1 -11 2 -20 8 -20 5 0 9 9 9 20 0 11 -4 20 -8 20 -4 0
-8 -9 -9 -20z"/>
<path d="M4442 4464 c-7 -8 -8 -14 -3 -14 10 0 25 19 20 25 -2 1 -10 -3 -17
-11z"/>
<path d="M4417 4423 c-4 -3 -7 -15 -7 -25 0 -10 -5 -18 -10 -18 -6 0 -15 -11
-20 -24 -7 -18 -14 -23 -29 -19 -15 4 -21 1 -21 -11 0 -9 -5 -16 -11 -16 -7 0
-10 -12 -7 -30 3 -16 1 -30 -4 -30 -4 0 -7 -3 -5 -8 3 -11 -65 -82 -80 -82 -7
0 -13 -4 -13 -10 0 -5 4 -10 9 -10 6 0 13 5 16 10 3 6 19 10 34 10 18 0 38 11
58 33 34 35 86 143 97 200 7 37 5 43 -7 30z"/>
<path d="M5224 2355 c19 -25 57 -62 84 -82 48 -36 93 -95 107 -141 5 -17 -2
-35 -29 -72 -20 -28 -36 -52 -36 -55 0 -3 16 2 37 10 20 8 38 13 41 10 3 -3
16 2 29 10 13 9 27 13 32 10 5 -2 12 3 16 12 3 10 2 19 -3 21 -5 1 -7 24 -4
49 5 44 3 49 -29 75 -18 15 -28 28 -21 28 21 0 13 20 -24 65 -20 24 -53 50
-73 59 -34 14 -141 46 -155 46 -4 0 9 -20 28 -45z m173 -41 c-3 -3 -12 -4 -19
-1 -8 3 -5 6 6 6 11 1 17 -2 13 -5z"/>
<path d="M1060 1965 c0 -8 -4 -15 -8 -15 -5 0 -17 -19 -27 -42 -10 -24 -25
-50 -32 -59 -7 -8 -24 -73 -39 -145 -14 -71 -30 -147 -35 -169 -4 -22 -17 -69
-28 -104 -11 -36 -18 -68 -16 -72 3 -4 -2 -10 -11 -13 -12 -4 -14 -14 -9 -36
4 -19 3 -30 -4 -30 -6 0 -11 -18 -11 -40 0 -23 -7 -55 -16 -71 -8 -17 -13 -38
-11 -47 5 -21 66 108 91 193 65 218 65 218 101 370 26 109 40 167 55 215 9 29
12 80 5 80 -3 0 -5 -7 -5 -15z"/>
<path d="M5505 1799 c-4 -6 -5 -12 -2 -15 2 -3 7 2 10 11 7 17 1 20 -8 4z"/>
<path d="M5650 1460 c-2 -25 -3 -53 -2 -62 1 -10 -2 -18 -6 -18 -16 0 -4 -197
17 -284 28 -114 69 -232 87 -247 8 -6 14 -18 14 -25 0 -7 18 -49 40 -93 22
-44 43 -93 46 -110 7 -32 24 -53 24 -29 0 7 6 4 12 -6 7 -12 7 -21 2 -23 -11
-4 -7 -67 6 -98 37 -89 40 -109 41 -262 0 -179 7 -203 55 -203 31 0 33 2 29
28 -2 15 -9 70 -16 122 -6 52 -18 111 -26 130 -17 41 -54 151 -57 165 -1 6 -5
15 -8 21 -14 22 -21 94 -9 94 6 0 11 -4 11 -10 0 -5 5 -10 10 -10 13 0 13 25
0 64 -5 17 -18 60 -29 96 -10 36 -38 115 -61 175 -55 144 -60 161 -48 173 6 6
6 12 -1 16 -5 4 -8 13 -4 21 3 11 -5 19 -26 26 -25 9 -29 14 -20 25 7 9 8 31
4 66 -4 29 -7 81 -7 116 0 51 -4 68 -20 84 -11 11 -17 26 -14 34 3 9 -1 14
-14 14 -13 0 -20 9 -23 28 -3 20 -5 15 -7 -18z"/>
<path d="M1300 1449 c0 -6 5 -20 12 -32 11 -21 11 -21 18 -2 4 11 5 26 3 33
-6 15 -33 16 -33 1z"/>
<path d="M4675 1400 c3 -5 8 -10 11 -10 2 0 4 5 4 10 0 6 -5 10 -11 10 -5 0
-7 -4 -4 -10z"/>
<path d="M4669 1308 c-11 -208 -2 -380 30 -543 27 -140 32 -194 41 -435 5
-151 10 -287 10 -302 0 -25 3 -28 36 -28 l35 0 -5 153 c-3 83 -5 166 -6 182
-4 101 -4 180 0 215 5 53 -32 297 -51 332 -7 13 -9 52 -5 102 3 44 6 84 6 89
0 4 15 7 34 7 47 0 66 9 66 30 0 14 9 20 37 22 35 3 37 5 50 53 15 60 17 121
3 130 -5 3 -10 17 -10 31 0 18 -5 24 -22 24 -30 0 -42 -10 -46 -35 -6 -41 -10
-44 -46 -38 -21 3 -42 1 -49 -6 -17 -14 -27 -5 -27 25 0 13 -4 25 -10 29 -5 3
-7 12 -3 20 6 18 -8 20 -25 3 -8 -8 -15 -8 -25 0 -12 10 -15 0 -18 -60z m98
-1020 c-2 -13 -4 -5 -4 17 -1 22 1 32 4 23 2 -10 2 -28 0 -40z"/>
<path d="M777 1123 c-10 -9 -9 -23 2 -23 5 0 11 7 15 15 5 15 -5 20 -17 8z"/>
<path d="M801 1074 c0 -11 3 -14 6 -6 3 7 2 16 -1 19 -3 4 -6 -2 -5 -13z"/>
<path d="M725 1000 c-33 -13 -42 -31 -48 -97 -7 -66 0 -76 30 -44 10 10 30 26
44 35 34 22 45 92 17 107 -19 10 -17 10 -43 -1z"/>
<path d="M624 839 c3 -14 1 -42 -5 -63 -12 -42 2 -100 28 -115 9 -4 17 -22 18
-39 1 -17 12 -43 24 -57 16 -22 18 -31 10 -47 -8 -15 -7 -22 7 -33 16 -11 16
-15 5 -29 -12 -14 -12 -18 1 -29 9 -7 19 -19 22 -27 3 -8 4 2 2 23 -4 30 -2
37 12 37 16 0 48 -42 117 -155 56 -92 61 -98 109 -105 26 -4 46 -4 46 -1 0 14
-83 171 -91 171 -5 0 -9 7 -9 16 0 21 -164 268 -206 310 -12 12 -24 28 -27 35
-5 12 -7 11 -16 -1 -8 -11 -11 -2 -11 38 0 29 -5 52 -10 52 -6 0 -15 10 -21
23 -9 21 -9 21 -5 -4z m21 -110 c-10 -31 -27 -7 -19 26 6 23 8 25 16 11 5 -9
6 -26 3 -37z"/>
<path d="M600 810 c0 -5 5 -10 11 -10 5 0 7 5 4 10 -3 6 -8 10 -11 10 -2 0 -4
-4 -4 -10z"/>
<path d="M1227 591 c8 -20 19 -52 23 -71 4 -19 26 -99 49 -177 22 -78 41 -151
41 -162 0 -21 20 -72 31 -81 4 -3 11 -25 16 -50 8 -41 11 -45 41 -47 l32 -3
-4 86 c-3 66 -9 93 -24 113 -10 14 -31 71 -47 126 -15 55 -32 104 -36 110 -5
5 -9 20 -9 33 0 30 -29 130 -39 136 -4 3 -26 9 -49 14 l-41 10 16 -37z"/>
<path d="M715 370 c-3 -5 1 -10 10 -10 9 0 13 5 10 10 -3 6 -8 10 -10 10 -2 0
-7 -4 -10 -10z"/>
<path d="M700 309 c0 -24 23 -21 28 4 2 10 -3 17 -12 17 -10 0 -16 -9 -16 -21z"/>
<path d="M690 245 c0 -9 -6 -26 -14 -38 -8 -12 -17 -38 -20 -57 -3 -19 -17
-48 -31 -64 -19 -22 -22 -32 -14 -43 9 -10 8 -17 -1 -28 -11 -13 -6 -15 34
-15 l46 0 1 73 c0 39 4 96 8 125 4 29 4 55 -1 58 -4 3 -8 -2 -8 -11z"/>
</g>
</svg>
